<svg width="66.000000" height="12.000000" viewBox="0 0 66 12" fill="none" xmlns="http://www.w3.org/2000/svg" xmlns:xlink="http://www.w3.org/1999/xlink">
	<desc>
			Created with Pixso.
	</desc>
	<defs/>
	<path id="Star 1" d="M6 0L4.08 3.36L0.29 4.14L2.9 7L2.47 10.85L6 9.25L9.52 10.85L9.09 7L11.7 4.14L7.91 3.36L6 0Z" fill="#F99808" fill-opacity="1.000000" fill-rule="evenodd"/>
	<path id="Star 2" d="M20 0L18.08 3.36L14.29 4.14L16.9 7L16.47 10.85L20 9.25L23.52 10.85L23.09 7L25.7 4.14L21.91 3.36L20 0Z" fill="#F99808" fill-opacity="1.000000" fill-rule="evenodd"/>
	<path id="Star 3" d="M33.5 0L31.74 3.36L28.26 4.14L30.66 7L30.26 10.85L33.5 9.25L36.73 10.85L36.33 7L38.73 4.14L35.25 3.36L33.5 0Z" fill="#F99808" fill-opacity="1.000000" fill-rule="evenodd"/>
	<path id="Star 4" d="M46.5 0L44.74 3.36L41.26 4.14L43.66 7L43.26 10.85L46.5 9.25L49.73 10.85L49.33 7L51.73 4.14L48.25 3.36L46.5 0Z" fill="#F99808" fill-opacity="1.000000" fill-rule="evenodd"/>
	<path id="Star 5" d="M60 0L58.08 3.36L54.29 4.14L56.9 7L56.47 10.85L60 9.25L63.52 10.85L63.09 7L65.7 4.14L61.91 3.36L60 0Z" fill="#F99808" fill-opacity="1.000000" fill-rule="evenodd"/>
</svg>
